<svg viewBox="0 0 92 92" fill="none" xmlns="http://www.w3.org/2000/svg">
<path d="M45.3623 2L35.2968 11.2248M45.3623 2V17.051M45.3623 2L53.0145 8.31172M45.3623 45.211V27.7324M45.3623 45.211L31.5884 40.9628M45.3623 45.211L36.0522 57.8205M45.3623 45.211L62.0696 40.4591M45.3623 45.211L55.5677 57.8205M2 32.5876L10.4174 27.7324M2 32.5876L17.8145 36.7145M2 32.5876L6.2087 41.0841M74.4406 81.1393L62.0696 79.1015M74.4406 81.1393L63.7327 67.909M74.4406 81.1393L75.9998 69.4799M89.7449 32.5876L75.2352 36.7145M89.7449 32.5876L84.3346 42.6621M89.7449 32.5876L78.0116 26.2065M18.8348 81.1393L27.4435 69.4799M18.8348 81.1393L16.2975 70.9434M18.8348 81.1393L30.1855 79.4336M18.8348 22.8772V11.2248M18.8348 22.8772L10.4174 27.7324M18.8348 22.8772L31.5884 14.6234M18.8348 22.8772L17.8145 36.7145M18.8348 11.2248L31.5884 14.6234M18.8348 11.2248H35.2968M18.8348 11.2248L10.4174 27.7324M31.5884 14.6234L35.2968 11.2248M31.5884 14.6234L26.487 20.4497M31.5884 14.6234L45.3623 17.051M60.6667 14.6234L71.8899 11.2248M60.6667 14.6234L71.8899 22.8772M60.6667 14.6234L65.1304 20.4497M60.6667 14.6234L45.3623 17.051M60.6667 14.6234L53.0145 8.31172M71.8899 11.2248V22.8772M71.8899 11.2248L53.0145 8.31172M71.8899 11.2248L78.0116 26.2065M71.8899 22.8772L65.1304 20.4497M71.8899 22.8772L75.2352 36.7145M71.8899 22.8772L78.0116 26.2065M78.0116 54.4359L62.0696 40.4591M78.0116 54.4359L75.2352 36.7145M78.0116 54.4359L55.5677 57.8205M78.0116 54.4359L63.7327 67.909M78.0116 54.4359L76.9078 62.6897M78.0116 54.4359L81.5316 47.8814M47.913 76.7697L36.0522 57.8205M47.913 76.7697L27.4435 69.4799M47.913 76.7697L37.5826 78.1048M47.913 76.7697L54.9913 77.9356M47.913 76.7697L63.7327 67.909M47.913 76.7697L55.5677 57.8205M14.2435 62.6897L2 59.291M14.2435 62.6897L15.2638 55.2682M14.2435 62.6897L27.4435 69.4799M14.2435 62.6897L10.4174 49.5807M14.2435 62.6897L16.2975 70.9434M2 59.291L10.4174 49.5807M2 59.291L6.2087 41.0841M2 59.291L16.2975 70.9434M10.4174 49.5807L17.8145 36.7145M10.4174 49.5807L6.2087 41.0841M10.4174 49.5807L15.2638 55.2682M17.8145 36.7145L26.487 20.4497M17.8145 36.7145L31.5884 40.9628M17.8145 36.7145L15.2638 55.2682M45.3623 27.7324L26.487 20.4497M45.3623 27.7324L62.0696 40.4591M45.3623 27.7324V17.051M45.3623 27.7324L31.5884 40.9628M45.3623 27.7324L65.1304 20.4497M26.487 20.4497L31.5884 40.9628M26.487 20.4497L45.3623 17.051M31.5884 40.9628L15.2638 55.2682M31.5884 40.9628L36.0522 57.8205M15.2638 55.2682L36.0522 57.8205M15.2638 55.2682L27.4435 69.4799M36.0522 57.8205L27.4435 69.4799M36.0522 57.8205H55.5677M27.4435 69.4799L37.5826 78.1048M30.1855 79.4336L46.6377 90M30.1855 79.4336L37.5826 78.1048M46.6377 90L62.0696 79.1015M46.6377 90L37.5826 78.1048M46.6377 90L54.9913 77.9356M62.0696 79.1015L54.9913 77.9356M37.5826 78.1048L54.9913 77.9356M54.9913 77.9356L63.7327 67.909M62.0696 40.4591L65.1304 20.4497M62.0696 40.4591L75.2352 36.7145M62.0696 40.4591L55.5677 57.8205M65.1304 20.4497L45.3623 17.051M65.1304 20.4497L75.2352 36.7145M55.5677 57.8205L63.7327 67.909M63.7327 67.909L76.9078 62.6897M76.9078 62.6897L90 58.6841M76.9078 62.6897L75.9998 69.4799M76.9078 62.6897L81.5316 47.8814M90 58.6841L81.5316 47.8814M90 58.6841L84.3346 42.6621M90 58.6841L75.9998 69.4799M81.5316 47.8814L84.3346 42.6621" stroke="currentColor" stroke-width="2"/>
</svg>
